# xmcd
# 
# Track frame offsets:
#     150
#     18261
#     33263
#     44812
#     65405
#     77839
#     96376
#     110226
#     125544
#     141628
#     157678
#     173992
#     193657
#     206998
#     222138
#     238677
# 
# Disc length: 3357
# 
# Revision: 6
# Processed by: cddbd v1.5.2PL0 Copyright (c) Steve Scherf et al.
# Submitted via: fre:ac v1.0.31
# 
DISCID=f10d1b10
DTITLE=Uno Kaupmees and Lustgast - Tormab aeg
DYEAR=2005
DGENRE=Pop
TTITLE0=Lucille
TTITLE1=Oma tants, lapaduu
TTITLE2=Tormab aeg
TTITLE3=Nagu heitlik küünlaleek
TTITLE4=Tõlla ees
TTITLE5=Sult jõudu saan
TTITLE6=Homseni, Rebecca!
TTITLE7=Taas sügis nii külm
TTITLE8=Liisa
TTITLE9=Naine
TTITLE10=Mu viimane roos
TTITLE11=Kuratlik mäng
TTITLE12=Laupäeva õhtul
TTITLE13=Vastseliina kantiina
TTITLE14=Veel üks õlu
TTITLE15=Vaikin siis kui mul on valus
EXTD=
EXTT0=
EXTT1=
EXTT2=
EXTT3=
EXTT4=
EXTT5=
EXTT6=
EXTT7=
EXTT8=
EXTT9=
EXTT10=
EXTT11=
EXTT12=
EXTT13=
EXTT14=
EXTT15=
PLAYORDER=
